<svg id="Layer_1" data-name="Layer 1" xmlns="http://www.w3.org/2000/svg" xmlns:xlink="http://www.w3.org/1999/xlink" viewBox="0 0 36.69 47.28"><defs><style>.cls-1{fill:url(#linear-gradient);}.cls-2{fill:url(#linear-gradient-2);}.cls-3{fill:url(#linear-gradient-3);}</style><linearGradient id="linear-gradient" y1="18.51" x2="25.86" y2="18.51" gradientTransform="matrix(1, 0, 0, -1, 0, 48.17)" gradientUnits="userSpaceOnUse"><stop offset="0" stop-color="#48eaff"/><stop offset="1" stop-color="#28ccff"/></linearGradient><linearGradient id="linear-gradient-2" x1="10.83" y1="30.55" x2="36.69" y2="30.55" gradientTransform="matrix(1, 0, 0, -1, 0, 48.17)" gradientUnits="userSpaceOnUse"><stop offset="0" stop-color="#2d8cfe"/><stop offset="1" stop-color="#2db4fe"/></linearGradient><linearGradient id="linear-gradient-3" x1="10.83" y1="24.54" x2="25.86" y2="24.54" gradientTransform="matrix(1, 0, 0, -1, 0, 48.17)" gradientUnits="userSpaceOnUse"><stop offset="0" stop-color="#00c6ff"/><stop offset="1" stop-color="#0038ff"/></linearGradient></defs><path class="cls-1" d="M10,47.27A6.78,6.78,0,0,1,5.19,35.7l3.37-3.36a1.55,1.55,0,0,0,0-2.16L2,23.6A6.78,6.78,0,0,1,11.57,14l12.31,12.3a7.18,7.18,0,0,1,0,9.88l-9.1,9.09a6.75,6.75,0,0,1-4.8,2Z"/><path class="cls-2" d="M29.91,35.23a6.7,6.7,0,0,1-4.79-2L12.81,21a6.81,6.81,0,0,1-2-4.94,6.85,6.85,0,0,1,2-4.94L21.91,2a6.78,6.78,0,0,1,9.59,9.59l-3.37,3.36a1.54,1.54,0,0,0,0,2.16l6.58,6.58a6.78,6.78,0,0,1-4.79,11.57Z"/><path class="cls-3" d="M24.11,26.58,15.64,18.1,15.53,18l-4-4c-.12-.12-.25-.23-.37-.33A6.72,6.72,0,0,0,10.83,16a6.84,6.84,0,0,0,1.74,4.67l8.48,8.47a1.71,1.71,0,0,1,.11.14l4,4,.37.33a7.29,7.29,0,0,0-1.38-7Z"/></svg>