<svg width="40" height="40" viewBox="0 0 40 40" fill="none" xmlns="http://www.w3.org/2000/svg">
<path d="M40 20C40 31.0938 31.0156 40 20 40C8.90625 40 0 31.0938 0 20C0 8.98438 8.90625 0 20 0C31.0156 0 40 8.98438 40 20ZM6.71875 8.59375C4.0625 11.6406 2.5 15.625 2.5 20C2.5 29.6875 10.3125 37.5 20 37.5C24.375 37.5 28.3594 35.9375 31.4062 33.2812L6.71875 8.59375ZM37.5 20C37.5 10.3906 29.6094 2.5 20 2.5C15.5469 2.5 11.5625 4.14062 8.51562 6.79688L33.2031 31.4844C35.8594 28.4375 37.5 24.4531 37.5 20Z" fill="#2F80ED"/>
</svg>
