<svg id="Layer_1" data-name="Layer 1" xmlns="http://www.w3.org/2000/svg" viewBox="0 0 30 31"><defs><style>.cls-1{fill:#2365e8;}.cls-2{fill:#fff;}</style></defs><path class="cls-1" d="M13.59,20.66V16.91H9.84a1.35,1.35,0,0,1-1.4-1.41,1.39,1.39,0,0,1,1.4-1.41h3.75V10.34A1.39,1.39,0,0,1,15,8.94a1.43,1.43,0,0,1,1.41,1.4v3.75h3.75a1.43,1.43,0,0,1,1.4,1.41,1.39,1.39,0,0,1-1.4,1.41H16.41v3.75A1.39,1.39,0,0,1,15,22.06,1.35,1.35,0,0,1,13.59,20.66ZM30,15.5A15,15,0,1,1,15,.5,15,15,0,0,1,30,15.5ZM15,3.31A12.19,12.19,0,1,0,27.19,15.5,12.22,12.22,0,0,0,15,3.31Z"/><rect class="cls-2" x="9.54" y="7.28" width="10.69" height="6.81"/><rect class="cls-2" x="9.54" y="16.91" width="10.69" height="6.81"/></svg>