<svg width="30" height="31" viewBox="0 0 30 31" fill="none" xmlns="http://www.w3.org/2000/svg">
<path d="M13.5938 20.6562V16.9062H9.84375C9.02344 16.9062 8.4375 16.3203 8.4375 15.5C8.4375 14.7383 9.02344 14.0938 9.84375 14.0938H13.5938V10.3438C13.5938 9.58203 14.1797 8.9375 15 8.9375C15.7617 8.9375 16.4062 9.58203 16.4062 10.3438V14.0938H20.1562C20.918 14.0938 21.5625 14.7383 21.5625 15.5C21.5625 16.3203 20.918 16.9062 20.1562 16.9062H16.4062V20.6562C16.4062 21.4766 15.7617 22.0625 15 22.0625C14.1797 22.0625 13.5938 21.4766 13.5938 20.6562ZM30 15.5C30 23.8203 23.2617 30.5 15 30.5C6.67969 30.5 0 23.8203 0 15.5C0 7.23828 6.67969 0.5 15 0.5C23.2617 0.5 30 7.23828 30 15.5ZM15 3.3125C8.26172 3.3125 2.8125 8.82031 2.8125 15.5C2.8125 22.2383 8.26172 27.6875 15 27.6875C21.6797 27.6875 27.1875 22.2383 27.1875 15.5C27.1875 8.82031 21.6797 3.3125 15 3.3125Z" fill="#2365E8"/>
</svg>
