<svg width="46" height="36" viewBox="0 0 46 36" fill="none" xmlns="http://www.w3.org/2000/svg">
<path d="M8 26.75C8 26.125 8.54688 25.5 9.25 25.5H14.25C14.875 25.5 15.5 26.125 15.5 26.75C15.5 27.4531 14.875 28 14.25 28H9.25C8.54688 28 8 27.4531 8 26.75ZM18 26.75C18 26.125 18.5469 25.5 19.25 25.5H29.25C29.875 25.5 30.5 26.125 30.5 26.75C30.5 27.4531 29.875 28 29.25 28H19.25C18.5469 28 18 27.4531 18 26.75ZM0.5 5.5C0.5 2.76562 2.6875 0.5 5.5 0.5H40.5C43.2344 0.5 45.5 2.76562 45.5 5.5V30.5C45.5 33.3125 43.2344 35.5 40.5 35.5H5.5C2.6875 35.5 0.5 33.3125 0.5 30.5V5.5ZM3 5.5V30.5C3 31.9062 4.09375 33 5.5 33H40.5C41.8281 33 43 31.9062 43 30.5V5.5C43 4.17188 41.8281 3 40.5 3H5.5C4.09375 3 3 4.17188 3 5.5Z" fill="#2F80ED"/>
</svg>
