<svg width="50" height="42" viewBox="0 0 50 42" fill="none" xmlns="http://www.w3.org/2000/svg">
<path d="M42.8125 1.39062C43.2812 0.921875 44.1406 0.921875 44.6094 1.39062L49.6094 6.39062C49.8438 6.625 50 6.9375 50 7.25C50 7.64062 49.8438 7.95312 49.6094 8.1875L44.6094 13.1875C44.1406 13.6562 43.2812 13.6562 42.8125 13.1875C42.3438 12.7188 42.3438 11.8594 42.8125 11.3906L45.7031 8.5H12.5C12.5 12.6406 9.14062 16 5 16V25.7656L2.5 28.2656V11C2.5 8.26562 4.6875 6 7.5 6H29.9219H30H45.7031L42.8125 3.1875C42.3438 2.71875 42.3438 1.85938 42.8125 1.39062ZM10 8.5H7.5C6.09375 8.5 5 9.67188 5 11V13.5C7.73438 13.5 10 11.3125 10 8.5ZM7.10938 38.8906C7.57812 39.3594 7.57812 40.2188 7.10938 40.6875C6.64062 41.1562 5.78125 41.1562 5.3125 40.6875L0.3125 35.6875C0.078125 35.4531 0 35.1406 0 34.75C0 34.4375 0.078125 34.125 0.3125 33.8906L5.3125 28.8906C5.78125 28.4219 6.64062 28.4219 7.10938 28.8906C7.57812 29.3594 7.57812 30.2188 7.10938 30.6875L4.21875 33.5H20H37.5C37.5 29.3594 40.7812 26 45 26V16.3125L47.5 13.8125V31C47.5 33.8125 45.2344 36 42.5 36H4.21875L7.10938 38.8906ZM40 33.5H42.5C43.8281 33.5 45 32.4062 45 31V28.5C42.1875 28.5 40 30.7656 40 33.5ZM32.5 21C32.5 25.1406 29.1406 28.5 25 28.5C20.7812 28.5 17.5 25.1406 17.5 21C17.5 16.8594 20.7812 13.5 25 13.5C29.1406 13.5 32.5 16.8594 32.5 21ZM25 16C22.1875 16 20 18.2656 20 21C20 23.8125 22.1875 26 25 26C27.7344 26 30 23.8125 30 21C30 18.2656 27.7344 16 25 16Z" fill="#2F80ED"/>
</svg>
