<svg width="130" height="49" viewBox="0 0 130 49" fill="none" xmlns="http://www.w3.org/2000/svg">
<g clip-path="url(#clip0_239_1425)">
<path d="M57.2918 30.7304V35.8035H43.7762V12.7368H49.0496V30.7304H57.2918Z" fill="#f8f8f8"/>
<path d="M67.5984 31.8493C68.9474 31.8493 70.1022 31.3231 70.7614 30.5976L74.7164 32.8711C73.1017 35.1139 70.6643 36.2634 67.532 36.2634C61.8958 36.2634 58.4006 32.4726 58.4006 27.5629C58.4006 22.6532 61.9622 18.8624 67.1692 18.8624C71.9826 18.8624 75.5391 22.5868 75.5391 27.5629C75.5391 28.2526 75.4727 28.9117 75.3398 29.54H63.6382C64.2668 31.2515 65.7793 31.8493 67.5933 31.8493H67.5984ZM70.6285 25.8514C70.1022 23.9407 68.6204 23.2459 67.1334 23.2459C65.253 23.2459 64.001 24.1706 63.5412 25.8514H70.6285Z" fill="#f8f8f8"/>
<path d="M92.5038 25.6878V35.8035H87.5575V26.4133C87.5575 24.3697 86.2698 23.4144 84.6909 23.4144C82.8769 23.4144 81.6249 24.4668 81.6249 26.8067V35.8035H76.6786V19.3272H81.6249V20.8752C82.5141 19.6542 84.1645 18.8674 86.3362 18.8674C89.6628 18.8674 92.4987 21.238 92.4987 25.6878H92.5038Z" fill="#f8f8f8"/>
<path d="M111.385 12.7368V35.8035H106.438V34.2555C105.35 35.5072 103.735 36.2633 101.528 36.2633C97.21 36.2633 93.6484 32.4725 93.6484 27.5628C93.6484 22.6532 97.21 18.8624 101.528 18.8624C103.735 18.8624 105.35 19.6185 106.438 20.8702V12.7317H111.385V12.7368ZM106.438 27.568C106.438 25.0952 104.788 23.5472 102.514 23.5472C100.24 23.5472 98.5897 25.0952 98.5897 27.568C98.5897 30.0407 100.24 31.5887 102.514 31.5887C104.788 31.5887 106.438 30.0407 106.438 27.568Z" fill="#f8f8f8"/>
<path d="M112.529 27.5679C112.529 22.6582 116.418 18.8674 121.262 18.8674C126.106 18.8674 129.995 22.6582 129.995 27.5679C129.995 32.4776 126.106 36.2684 121.262 36.2684C116.418 36.2684 112.529 32.4776 112.529 27.5679ZM125.054 27.5679C125.054 25.228 123.403 23.68 121.262 23.68C119.121 23.68 117.471 25.228 117.471 27.5679C117.471 29.9078 119.121 31.4558 121.262 31.4558C123.403 31.4558 125.054 29.9078 125.054 27.5679Z" fill="#f8f8f8"/>
<path d="M9.98461 48.1363C8.24726 48.1363 6.51502 47.4773 5.19156 46.1541C2.54976 43.5128 2.54976 39.2111 5.19156 36.5698L8.55896 33.203C8.84511 32.9169 9.00352 32.5337 9.00352 32.125C9.00352 31.7163 8.84511 31.3332 8.55896 31.0471L1.98257 24.4668C-0.659229 21.8255 -0.659229 17.5238 1.98257 14.8825C4.62437 12.2412 8.92687 12.2412 11.5687 14.8825L23.8783 27.1898C25.1762 28.4875 25.8967 30.2807 25.8558 32.125C25.8916 33.9642 25.1762 35.7626 23.8783 37.0602L14.7777 46.1592C13.4542 47.4824 11.722 48.1415 9.98461 48.1415V48.1363Z" fill="url(#paint0_linear_239_1425)"/>
<path d="M29.9131 36.0997C28.1757 36.0997 26.4435 35.4407 25.12 34.1175L12.8103 21.8101C11.5124 20.5125 10.7919 18.7192 10.8328 16.8749C10.7971 15.0357 11.5124 13.2374 12.8103 11.9397L21.911 2.84585C24.5528 0.204542 28.8553 0.204542 31.4971 2.84585C34.1389 5.48715 34.1389 9.78885 31.4971 12.4302L28.1297 15.7969C27.537 16.3896 27.537 17.3603 28.1297 17.958L34.7112 24.5383C37.353 27.1796 37.353 31.4813 34.7112 34.1226C33.3878 35.4458 31.6555 36.1048 29.9182 36.1048L29.9131 36.0997Z" fill="url(#paint1_linear_239_1425)"/>
<path d="M24.1133 27.4402L15.6412 18.9696C15.6003 18.9287 15.5696 18.8776 15.5288 18.8316L11.5686 14.8722C11.4511 14.7547 11.3233 14.6474 11.2007 14.5402C10.9503 15.281 10.8124 16.0677 10.8328 16.8647C10.797 18.5864 11.4307 20.2621 12.5753 21.5343L21.0474 30.0048C21.0883 30.0457 21.119 30.0968 21.1598 30.1428L25.12 34.1022C25.2375 34.2197 25.3652 34.327 25.4879 34.4342C25.7383 33.6935 25.8762 32.9067 25.8558 32.1097C25.8916 30.388 25.2579 28.7123 24.1133 27.4402Z" fill="url(#paint2_linear_239_1425)"/>
</g>
<defs>
<linearGradient id="paint0_linear_239_1425" x1="-5.67622e-05" y1="30.5208" x2="25.8558" y2="30.5208" gradientUnits="userSpaceOnUse">
<stop stop-color="#48EAFF"/>
<stop offset="1" stop-color="#28CCFF"/>
</linearGradient>
<linearGradient id="paint1_linear_239_1425" x1="10.8277" y1="18.4791" x2="36.6887" y2="18.4791" gradientUnits="userSpaceOnUse">
<stop stop-color="#2D8CFE"/>
<stop offset="1" stop-color="#2DB4FE"/>
</linearGradient>
<linearGradient id="paint2_linear_239_1425" x1="10.8277" y1="24.4872" x2="25.8558" y2="24.4872" gradientUnits="userSpaceOnUse">
<stop stop-color="#00C6FF"/>
<stop offset="1" stop-color="#0038FF"/>
</linearGradient>
<clipPath id="clip0_239_1425">
<rect width="130" height="47.2727" fill="white" transform="translate(0 0.863647)"/>
</clipPath>
</defs>
</svg>
