<svg width="130" height="49" viewBox="0 0 130 49" fill="none" xmlns="http://www.w3.org/2000/svg">
<g clip-path="url(#clip0_239_1425)">
<path d="M9.98461 48.1363C8.24726 48.1363 6.51502 47.4773 5.19156 46.1541C2.54976 43.5128 2.54976 39.2111 5.19156 36.5698L8.55896 33.203C8.84511 32.9169 9.00352 32.5337 9.00352 32.125C9.00352 31.7163 8.84511 31.3332 8.55896 31.0471L1.98257 24.4668C-0.659229 21.8255 -0.659229 17.5238 1.98257 14.8825C4.62437 12.2412 8.92687 12.2412 11.5687 14.8825L23.8783 27.1898C25.1762 28.4875 25.8967 30.2807 25.8558 32.125C25.8916 33.9642 25.1762 35.7626 23.8783 37.0602L14.7777 46.1592C13.4542 47.4824 11.722 48.1415 9.98461 48.1415V48.1363Z" fill="url(#paint0_linear_239_1425)"/>
<path d="M29.9131 36.0997C28.1757 36.0997 26.4435 35.4407 25.12 34.1175L12.8103 21.8101C11.5124 20.5125 10.7919 18.7192 10.8328 16.8749C10.7971 15.0357 11.5124 13.2374 12.8103 11.9397L21.911 2.84585C24.5528 0.204542 28.8553 0.204542 31.4971 2.84585C34.1389 5.48715 34.1389 9.78885 31.4971 12.4302L28.1297 15.7969C27.537 16.3896 27.537 17.3603 28.1297 17.958L34.7112 24.5383C37.353 27.1796 37.353 31.4813 34.7112 34.1226C33.3878 35.4458 31.6555 36.1048 29.9182 36.1048L29.9131 36.0997Z" fill="url(#paint1_linear_239_1425)"/>
<path d="M24.1133 27.4402L15.6412 18.9696C15.6003 18.9287 15.5696 18.8776 15.5288 18.8316L11.5686 14.8722C11.4511 14.7547 11.3233 14.6474 11.2007 14.5402C10.9503 15.281 10.8124 16.0677 10.8328 16.8647C10.797 18.5864 11.4307 20.2621 12.5753 21.5343L21.0474 30.0048C21.0883 30.0457 21.119 30.0968 21.1598 30.1428L25.12 34.1022C25.2375 34.2197 25.3652 34.327 25.4879 34.4342C25.7383 33.6935 25.8762 32.9067 25.8558 32.1097C25.8916 30.388 25.2579 28.7123 24.1133 27.4402Z" fill="url(#paint2_linear_239_1425)"/>
</g>
<defs>
<linearGradient id="paint0_linear_239_1425" x1="-5.67622e-05" y1="30.5208" x2="25.8558" y2="30.5208" gradientUnits="userSpaceOnUse">
<stop stop-color="#48EAFF"/>
<stop offset="1" stop-color="#28CCFF"/>
</linearGradient>
<linearGradient id="paint1_linear_239_1425" x1="10.8277" y1="18.4791" x2="36.6887" y2="18.4791" gradientUnits="userSpaceOnUse">
<stop stop-color="#2D8CFE"/>
<stop offset="1" stop-color="#2DB4FE"/>
</linearGradient>
<linearGradient id="paint2_linear_239_1425" x1="10.8277" y1="24.4872" x2="25.8558" y2="24.4872" gradientUnits="userSpaceOnUse">
<stop stop-color="#00C6FF"/>
<stop offset="1" stop-color="#0038FF"/>
</linearGradient>
<clipPath id="clip0_239_1425">
<rect width="130" height="47.2727" fill="white" transform="translate(0 0.863647)"/>
</clipPath>
</defs>
</svg>
