<svg width="510" height="510" viewBox="0 0 510 510" fill="none" xmlns="http://www.w3.org/2000/svg">
<path d="M255 0C114.175 0 0 114.175 0 255C0 395.825 114.175 510 255 510C395.825 510 510 395.825 510 255C510 114.175 395.825 0 255 0ZM493.166 244.436L465.672 224.4L491.479 224.803C491.479 224.803 492.533 235.674 493.166 244.455V244.436ZM274.154 432.599L255.556 419.676L239.182 432.369L244.685 413.215L227.103 401.002L248.079 400.005L254.847 379.701L262.056 399.564L284.181 399.717L267.29 412.602L274.192 432.618L274.154 432.599ZM77.4395 292.541L97.456 292.138L103.994 271.623L111.145 291.467L132.638 291.927L115.689 304.735L122.074 326.017L104.703 313.612L87.5244 326.17L94.4459 304.485L77.4395 292.521V292.541ZM235.06 75.1962L253.179 88.253L269.514 76.0207L263.8 94.8102L280.941 107.158L260.253 107.79L253.274 127.692L246.487 108.001L224.688 107.483L241.541 95.0594L235.06 75.2154V75.1962ZM253.926 289.473L239.163 297.871L232.338 282.321L215.465 280.442L219.089 263.858L206.55 252.412L219.223 241.119L215.811 224.477L232.702 222.789L239.719 207.317L254.386 215.887L269.15 207.489L275.975 223.039L292.847 224.918L289.224 241.502L301.763 252.948L289.089 264.241L292.502 280.883L275.611 282.571L268.594 298.043L253.926 289.473ZM263.129 307.649L252.718 338.862L241.886 306.518L252.143 299.462L263.129 307.649ZM205.055 228.733L208.506 240.965L197.002 248.884L170.275 228.599L205.055 228.733ZM202.006 182.814L230.324 202.658L226.202 214.622L212.321 214.564L202.006 182.814ZM154.361 216.482L130.472 198.862L138.371 171.617L162.644 154.323L185.421 170.908L199.552 215.139L154.361 216.482ZM186.591 252.488L151.006 280.193L121.269 280.251L111.395 253.888L120.636 225.78L148.839 225.57L186.572 252.508L186.591 252.488ZM152.214 291.755L198.459 291.275L186.495 334.606L162.74 352.168L139.119 336.696L129.762 308.55L152.214 291.755ZM171.061 280.481L199.149 260.1L209.196 267.807L204.652 280.903L171.061 280.5V280.481ZM213.011 290.01L225.646 290.317L229.807 303.565L202.677 323.026L212.992 290.01H213.011ZM244.071 197.692L254.482 166.479L265.315 198.823L255.058 205.879L244.071 197.692ZM336.159 224.86L308.071 245.241L298.024 237.533L302.568 224.438L336.159 224.841V224.86ZM308.761 214.066L320.725 170.735L344.48 153.173L368.101 168.645L377.457 196.791L355.006 213.586L308.761 214.066ZM294.209 215.331L281.574 215.024L277.413 201.776L304.543 182.315L294.228 215.331H294.209ZM281.018 290.719L294.899 290.777L305.214 322.527L276.895 302.683L281.018 290.719ZM302.165 276.608L298.714 264.376L310.218 256.457L336.945 276.742L302.165 276.608ZM352.859 288.859L376.748 306.479L368.849 333.724L344.576 351.018L321.798 334.433L307.668 290.202L352.859 288.859ZM320.629 252.853L356.214 225.148L385.951 225.09L395.825 251.453L386.584 279.561L358.38 279.771L320.648 252.833L320.629 252.853ZM394.886 213.145L373.354 212.551L390.399 199.955L384.13 178.807L401.443 191.212L418.737 178.845L411.681 200.3L428.668 212.264L408.614 212.532L401.941 232.836L394.905 213.107L394.886 213.145ZM402.095 177.81L379.279 162.548L369.156 134.038L391.703 118.144L437.354 117.664L425.543 160.458L402.076 177.791L402.095 177.81ZM355.179 129.724L361.927 150.047L344.538 138.275L326.956 150.469L333.091 130.261L315.471 116.878L336.715 116.686L343.176 96.5165L350.309 118.009L371.035 117.664L355.14 129.705L355.179 129.724ZM320.38 135.514L312.174 161.896L275.553 188.968L260.062 147.44L268.881 119.697L296.663 118.431L320.399 135.514H320.38ZM238.051 119.984L246.813 146.194L232.913 189.563L196.062 164.926L186.994 137.259L208.812 120.003H238.051V119.984ZM173.074 132.581L179.037 152.789L162.03 140.787L144.046 153.096L150.469 133.175L133.597 120.866H155.914L162.011 101.386L168.358 119.984H189.467L173.055 132.581H173.074ZM136.492 137.24L129.091 163.238L105.413 181.376L83.6707 165.079L69.3677 122.438L113.101 120.521L136.492 137.24ZM87.8504 182.124L104.473 193.321L121.633 180.283L116.073 200.664L133.405 213.414L112.162 214.162L105.144 235.271L98.0695 215.12L76.7684 215.542L94.906 201.757L87.8504 182.162V182.124ZM90.4195 228.714L99.7759 254.08L91.3398 282.686L64.1718 282.341L27.4748 256.323L61.6601 228.982L90.4004 228.695L90.4195 228.714ZM106.41 330.081L128.823 345.189L138.697 373.335L116.456 388.942L71.4767 389.268L83.2297 347.107L106.391 330.081H106.41ZM151.735 374.716L144.909 354.469L162.376 366.03L179.957 353.606L173.86 373.911L191.557 387.082L170.256 387.542L163.833 407.789L156.624 386.373L135.859 386.986L151.754 374.735L151.735 374.716ZM186.859 369.827L195.065 343.445L231.686 316.373L247.177 357.901L238.358 385.644L210.576 386.91L186.84 369.827H186.859ZM269.188 385.357L260.426 359.147L274.326 315.778L311.177 340.415L320.245 368.082L298.427 385.338H269.188V385.357ZM334.548 374.582L328.317 353.99L345.765 366.126L364.036 353.434L357.633 373.815L374.927 386.258L352.149 386.411L346.052 406.313L339.457 387.389L317.906 387.542L334.568 374.562L334.548 374.582ZM370.095 369.041L378.014 342.639L402.421 324.502L424.354 341.432L438.312 385.108L393.697 386.43L370.095 369.041ZM418.698 321.453L402.44 309.777L384.916 322.278L391.089 302.089L374.16 288.84L395.403 288.744L403.053 267.884L409.515 288.227L430.797 288.476L412.256 301.686L418.698 321.453ZM417.855 278.889L408.498 253.179L417.356 224.323L445.1 224.898L482.353 251.491L447.209 278.851L417.855 278.909V278.889ZM480.32 175.988C486.226 192.515 489.447 212.148 489.447 212.148L449.298 212.474L425.658 195.008L434.248 167.13L466.094 143.452C466.094 143.452 474.415 159.442 480.32 175.988ZM460.534 133.789L440.268 149.511L450.027 117.032C454.82 124.432 460.534 133.789 460.534 133.789ZM441.821 105.605H407.885L428.764 90.7455C428.764 90.7455 436.088 98.894 441.821 105.605ZM390.744 57.9214C405.316 67.7955 419.6 81.7342 419.6 81.7342L387.658 105.643L358.342 105.47L348.602 77.8996L359.972 40.0331C359.972 40.0331 376.173 48.0474 390.725 57.9214H390.744ZM350.922 37.6365L343.828 61.8902L332.842 30.3124C340.952 33.4568 350.922 37.6365 350.922 37.6365ZM337.75 78.7432L329.046 106.141L302.031 107.119L277.471 90.1703L286.271 64.4594L322.431 37.7323L337.731 78.7432H337.75ZM300.018 21.1477C300.018 21.1477 310.582 23.4293 319.038 25.5L291.965 45.0947L300.037 21.1477H300.018ZM250.705 16.8722C268.038 16.3545 287.498 19.2496 287.498 19.2496L275.841 56.7902L252.354 73.5857L228.637 57.1737L215.811 20.3617C215.811 20.3617 233.373 17.4282 250.705 16.8914V16.8722ZM204.844 22.7391L213.261 46.5711L185.901 27.3598C194.318 25.1741 204.844 22.7391 204.844 22.7391ZM218.974 63.75L227.928 91.0714L206.569 107.656L176.736 108.25L168.856 82.2519L182.584 39.4195L218.974 63.75ZM173.342 31.9229L162.836 63.6541L155.377 39.4962C155.377 39.4962 165.271 35.1823 173.342 31.9229ZM112.2 64.4211C125.966 53.8759 143.452 44.8455 143.452 44.8455L155.933 82.1177L146.673 109.477L117.837 110.014L85.9139 87.6203C85.9139 87.6203 98.4338 74.9662 112.2 64.4211ZM78.1105 96.2673L98.9899 110.494L65.5714 111.203C71.0549 104.454 78.1105 96.2673 78.1105 96.2673ZM56.6752 121.921L66.9902 153.729L46.6861 138.678C46.6861 138.678 52.112 129.341 56.6752 121.94V121.921ZM27.4365 184.252C32.2872 167.61 41.0301 149.971 41.0301 149.971L73.1447 172.633L81.8876 200.165L58.9568 217.67L19.9782 218.514C19.9782 218.514 22.5857 200.894 27.4365 184.252ZM18.0992 229.27L43.3692 228.465L16.7763 248.73C17.2365 240.026 18.0992 229.27 18.0992 229.27ZM16.3929 263.628L43.8868 283.664L18.0801 283.261C18.0801 283.261 17.0256 272.39 16.3929 263.609V263.628ZM29.2579 332.075C23.3526 315.548 20.1316 295.915 20.1316 295.915L60.2797 295.589L83.9199 313.036L75.3305 340.914L43.4842 364.573C43.4842 364.573 35.1632 348.583 29.2579 332.056V332.075ZM49.0444 374.275L69.3102 358.553L59.5511 391.032C54.7579 383.631 49.0444 374.275 49.0444 374.275ZM67.7571 402.459H101.693L80.8139 417.337C80.8139 417.337 73.4898 409.189 67.7571 402.459ZM118.834 450.142C104.262 440.268 89.9786 426.329 89.9786 426.329L121.921 402.421L151.236 402.593L160.976 430.164L149.606 468.03C149.606 468.03 133.405 460.016 118.853 450.142H118.834ZM158.656 470.427L165.75 446.173L176.736 477.751C168.626 474.607 158.656 470.427 158.656 470.427ZM170.946 428.323L179.535 400.887L206.55 399.794L231.168 416.647L222.464 442.396L186.418 469.277L170.946 428.323ZM208.045 488.584C208.045 488.584 197.213 486.206 188.527 484.059L216.405 464.004L208.045 488.584ZM258.662 493.109C240.87 493.588 220.891 490.559 220.891 490.559L232.989 452.04L257.167 434.861L281.459 451.791L294.496 489.638C294.496 489.638 276.454 492.61 258.662 493.089V493.109ZM303.565 487.318L294.803 463.065L322.853 482.468C314.264 484.768 303.565 487.318 303.565 487.318ZM288.188 445.138L278.87 417.318L300.536 400.254L330.963 399.43L339.188 425.908L325.499 469.718L288.208 445.138H288.188ZM335.661 477.732L346.167 445.272L353.932 469.871C353.932 469.871 343.867 474.338 335.661 477.732ZM397.129 443.7C383.171 454.552 365.379 463.908 365.379 463.908L352.398 425.946L361.659 397.973L391.07 397.225L423.798 419.849C423.798 419.849 411.106 432.848 397.148 443.7H397.129ZM430.356 412.544L409.265 397.742L443.355 397.493C437.661 404.3 430.356 412.544 430.356 412.544ZM451.235 385.798L441.188 353.223L461.665 368.868C461.665 368.868 456.009 378.32 451.235 385.798ZM481.95 322.661C476.773 339.553 467.589 357.403 467.589 357.403L435.168 333.839L426.674 305.655L450.295 288.15L490.06 287.862C490.06 287.862 487.146 305.77 481.969 322.68L481.95 322.661ZM466.362 279.139L493.665 258.854C493.128 267.635 492.169 278.506 492.169 278.506L466.362 279.139Z" fill="#D8E0EA"/>
</svg>
