<svg width="214" height="74" viewBox="0 0 214 74" fill="none" xmlns="http://www.w3.org/2000/svg">
<path d="M97.952 21.591C99.902 21.591 101.267 20.564 101.267 19.108C101.267 17.821 100.331 16.989 98.303 16.378C96.522 15.832 95.963 15.364 95.963 14.597C95.963 13.843 96.704 13.336 97.848 13.336C98.81 13.336 99.746 13.726 100.435 14.389L101.033 13.57C100.149 12.751 99.018 12.309 97.874 12.309C96.093 12.309 94.871 13.258 94.871 14.649C94.871 15.91 95.729 16.716 97.731 17.301C99.46 17.795 100.162 18.341 100.162 19.134C100.162 20.018 99.33 20.564 97.978 20.564C96.873 20.564 95.989 20.226 95.131 19.485L94.559 20.33C95.482 21.149 96.665 21.591 97.952 21.591ZM105.761 21.656C106.944 21.656 108.023 21.162 108.608 20.304L107.906 19.667C107.412 20.317 106.645 20.681 105.787 20.681C104.37 20.681 103.447 19.667 103.447 18.198C103.447 16.742 104.396 15.715 105.774 15.715C106.567 15.715 107.308 16.053 107.815 16.638L108.465 15.975C107.841 15.182 106.866 14.74 105.761 14.74C103.798 14.74 102.407 16.183 102.407 18.198C102.407 20.213 103.811 21.656 105.761 21.656ZM111.882 21.591C112.922 21.591 113.858 21.149 114.365 20.447L114.378 21.5H115.366V17.249C115.366 15.676 114.365 14.792 112.545 14.792C111.674 14.792 110.933 14.987 109.984 15.455L110.296 16.326C111.089 15.936 111.778 15.754 112.48 15.754C113.754 15.754 114.352 16.235 114.352 17.262V17.743C113.65 17.483 112.922 17.353 112.233 17.353C110.569 17.353 109.503 18.224 109.503 19.55C109.503 20.772 110.465 21.591 111.882 21.591ZM110.543 19.498C110.543 18.705 111.206 18.237 112.35 18.237C112.935 18.237 113.611 18.367 114.365 18.614V18.705C114.365 19.823 113.403 20.681 112.064 20.681C111.102 20.681 110.543 20.226 110.543 19.498ZM117.641 21.5H118.681V18.055C118.681 16.664 119.513 15.78 120.839 15.78C121.996 15.78 122.646 16.495 122.646 17.743V21.5H123.686V17.574C123.686 15.91 122.633 14.805 121.008 14.805C119.981 14.805 119.24 15.195 118.668 15.988V14.896H117.641V21.5ZM131.295 21.591C131.724 21.591 132.218 21.5 132.738 21.253L132.4 20.356C132.023 20.525 131.698 20.616 131.399 20.616C130.71 20.616 130.359 20.2 130.359 19.42V15.806H132.413V14.896H130.359V13.323H129.319V14.896H128.032V15.806H129.319V19.459C129.319 20.772 130.047 21.591 131.295 21.591ZM134.17 21.5H135.21V18.029C135.21 16.664 136.042 15.78 137.368 15.78C138.525 15.78 139.175 16.495 139.175 17.73V21.5H140.215V17.561C140.215 15.897 139.149 14.805 137.537 14.805C136.536 14.805 135.782 15.195 135.21 15.962V11.88H134.17V21.5ZM145.333 21.656C146.568 21.656 147.556 21.175 148.206 20.408L147.582 19.732C147.01 20.343 146.243 20.707 145.346 20.707C144.085 20.707 143.136 19.875 142.967 18.705H148.505C148.817 16.521 147.387 14.74 145.255 14.74C143.331 14.74 141.94 16.183 141.94 18.198C141.94 20.239 143.318 21.656 145.333 21.656ZM142.967 17.808C143.11 16.547 144.02 15.689 145.255 15.689C146.516 15.689 147.413 16.586 147.543 17.808H142.967ZM157.449 21.656C158.268 21.656 159.009 21.474 159.659 21.149L160.751 22.761L161.544 22.215L160.452 20.629C161.466 19.784 162.077 18.484 162.077 16.95C162.077 14.207 160.14 12.244 157.449 12.244C154.758 12.244 152.821 14.194 152.821 16.95C152.821 19.706 154.745 21.656 157.449 21.656ZM153.913 16.95C153.913 14.805 155.382 13.284 157.449 13.284C159.529 13.284 160.985 14.805 160.985 16.95C160.985 18.107 160.556 19.082 159.841 19.745L158.229 17.366L157.475 17.912L159.061 20.265C158.593 20.486 158.047 20.616 157.449 20.616C155.369 20.616 153.913 19.095 153.913 16.95ZM164.083 21.5H165.162V18.12H167.502L169.712 21.5H170.934L168.607 18.003C169.894 17.652 170.7 16.599 170.7 15.26C170.7 13.609 169.478 12.4 167.658 12.4H164.083V21.5ZM165.149 17.145V13.414H167.619C168.88 13.414 169.621 14.129 169.621 15.273C169.621 16.43 168.88 17.145 167.619 17.145H165.149ZM178.53 21.656C179.713 21.656 180.792 21.162 181.377 20.304L180.675 19.667C180.181 20.317 179.414 20.681 178.556 20.681C177.139 20.681 176.216 19.667 176.216 18.198C176.216 16.742 177.165 15.715 178.543 15.715C179.336 15.715 180.077 16.053 180.584 16.638L181.234 15.975C180.61 15.182 179.635 14.74 178.53 14.74C176.567 14.74 175.176 16.183 175.176 18.198C175.176 20.213 176.58 21.656 178.53 21.656ZM185.616 21.656C187.644 21.656 189.087 20.226 189.087 18.198C189.087 16.17 187.644 14.74 185.616 14.74C183.588 14.74 182.158 16.17 182.158 18.198C182.158 20.226 183.588 21.656 185.616 21.656ZM183.198 18.198C183.198 16.729 184.199 15.715 185.616 15.715C187.046 15.715 188.047 16.729 188.047 18.198C188.047 19.667 187.046 20.681 185.616 20.681C184.199 20.681 183.198 19.667 183.198 18.198ZM193.649 21.656C194.741 21.656 195.651 21.188 196.223 20.408V21.5H197.25V11.88H196.21V15.975C195.638 15.208 194.728 14.74 193.649 14.74C191.725 14.74 190.36 16.17 190.36 18.198C190.36 20.226 191.725 21.656 193.649 21.656ZM191.4 18.198C191.4 16.729 192.388 15.715 193.818 15.715C195.235 15.715 196.223 16.729 196.223 18.198C196.223 19.667 195.235 20.681 193.818 20.681C192.401 20.681 191.4 19.667 191.4 18.198ZM202.462 21.656C203.697 21.656 204.685 21.175 205.335 20.408L204.711 19.732C204.139 20.343 203.372 20.707 202.475 20.707C201.214 20.707 200.265 19.875 200.096 18.705H205.634C205.946 16.521 204.516 14.74 202.384 14.74C200.46 14.74 199.069 16.183 199.069 18.198C199.069 20.239 200.447 21.656 202.462 21.656ZM200.096 17.808C200.239 16.547 201.149 15.689 202.384 15.689C203.645 15.689 204.542 16.586 204.672 17.808H200.096ZM98.095 41.656C100.123 41.656 101.566 40.226 101.566 38.198C101.566 36.17 100.123 34.74 98.095 34.74C96.067 34.74 94.637 36.17 94.637 38.198C94.637 40.226 96.067 41.656 98.095 41.656ZM95.677 38.198C95.677 36.729 96.678 35.715 98.095 35.715C99.525 35.715 100.526 36.729 100.526 38.198C100.526 39.667 99.525 40.681 98.095 40.681C96.678 40.681 95.677 39.667 95.677 38.198ZM103.384 41.5H104.424V38.055C104.424 36.664 105.256 35.78 106.582 35.78C107.739 35.78 108.389 36.495 108.389 37.743V41.5H109.429V37.574C109.429 35.91 108.376 34.805 106.751 34.805C105.724 34.805 104.983 35.195 104.411 35.988V34.896H103.384V41.5ZM115.332 44.555C116.346 44.555 117.048 44.035 117.516 42.826L120.571 34.896H119.466L118.049 38.64L117.36 40.447L114.903 34.896H113.772L116.84 41.786L116.567 42.488C116.229 43.32 115.891 43.567 115.267 43.567C114.994 43.567 114.721 43.528 114.461 43.424L114.175 44.321C114.539 44.477 114.929 44.555 115.332 44.555ZM124.565 41.656C126.593 41.656 128.036 40.226 128.036 38.198C128.036 36.17 126.593 34.74 124.565 34.74C122.537 34.74 121.107 36.17 121.107 38.198C121.107 40.226 122.537 41.656 124.565 41.656ZM122.147 38.198C122.147 36.729 123.148 35.715 124.565 35.715C125.995 35.715 126.996 36.729 126.996 38.198C126.996 39.667 125.995 40.681 124.565 40.681C123.148 40.681 122.147 39.667 122.147 38.198ZM135.808 34.896H134.768V38.341C134.768 39.732 133.936 40.616 132.61 40.616C131.453 40.616 130.79 39.901 130.79 38.64V34.896H129.75V38.809C129.75 40.486 130.816 41.591 132.428 41.591C133.468 41.591 134.209 41.188 134.781 40.395V41.5H135.808V34.896ZM138.169 41.5H139.209V38.432C139.209 36.885 139.807 35.858 141.094 35.858C141.406 35.858 141.692 35.897 142.043 36.014L142.316 34.987C141.978 34.857 141.627 34.805 141.302 34.805C140.314 34.805 139.638 35.299 139.196 36.014V34.896H138.169V41.5ZM150.276 41.656C152.187 41.656 153.565 40.226 153.565 38.198C153.565 36.17 152.187 34.74 150.276 34.74C149.197 34.74 148.287 35.221 147.702 36.001V34.896H146.675V44.49H147.715V40.421C148.287 41.188 149.197 41.656 150.276 41.656ZM147.702 38.198C147.702 36.742 148.703 35.715 150.107 35.715C151.524 35.715 152.525 36.729 152.525 38.198C152.525 39.667 151.524 40.681 150.107 40.681C148.703 40.681 147.702 39.654 147.702 38.198ZM155.384 41.5H156.424V38.029C156.424 36.664 157.256 35.78 158.582 35.78C159.739 35.78 160.389 36.495 160.389 37.73V41.5H161.429V37.561C161.429 35.897 160.363 34.805 158.751 34.805C157.75 34.805 156.996 35.195 156.424 35.962V31.88H155.384V41.5ZM166.612 41.656C168.64 41.656 170.083 40.226 170.083 38.198C170.083 36.17 168.64 34.74 166.612 34.74C164.584 34.74 163.154 36.17 163.154 38.198C163.154 40.226 164.584 41.656 166.612 41.656ZM164.194 38.198C164.194 36.729 165.195 35.715 166.612 35.715C168.042 35.715 169.043 36.729 169.043 38.198C169.043 39.667 168.042 40.681 166.612 40.681C165.195 40.681 164.194 39.667 164.194 38.198ZM171.901 41.5H172.941V38.055C172.941 36.664 173.773 35.78 175.099 35.78C176.256 35.78 176.906 36.495 176.906 37.743V41.5H177.946V37.574C177.946 35.91 176.893 34.805 175.268 34.805C174.241 34.805 173.5 35.195 172.928 35.988V34.896H171.901V41.5ZM183.063 41.656C184.298 41.656 185.286 41.175 185.936 40.408L185.312 39.732C184.74 40.343 183.973 40.707 183.076 40.707C181.815 40.707 180.866 39.875 180.697 38.705H186.235C186.547 36.521 185.117 34.74 182.985 34.74C181.061 34.74 179.67 36.183 179.67 38.198C179.67 40.239 181.048 41.656 183.063 41.656ZM180.697 37.808C180.84 36.547 181.75 35.689 182.985 35.689C184.246 35.689 185.143 36.586 185.273 37.808H180.697ZM193.324 41.591C193.753 41.591 194.247 41.5 194.767 41.253L194.429 40.356C194.052 40.525 193.727 40.616 193.428 40.616C192.739 40.616 192.388 40.2 192.388 39.42V35.806H194.442V34.896H192.388V33.323H191.348V34.896H190.061V35.806H191.348V39.459C191.348 40.772 192.076 41.591 193.324 41.591ZM198.908 41.656C200.936 41.656 202.379 40.226 202.379 38.198C202.379 36.17 200.936 34.74 198.908 34.74C196.88 34.74 195.45 36.17 195.45 38.198C195.45 40.226 196.88 41.656 198.908 41.656ZM196.49 38.198C196.49 36.729 197.491 35.715 198.908 35.715C200.338 35.715 201.339 36.729 201.339 38.198C201.339 39.667 200.338 40.681 198.908 40.681C197.491 40.681 196.49 39.667 196.49 38.198ZM95.3 61.5H98.42C101.215 61.5 102.996 59.732 102.996 56.95C102.996 54.168 101.215 52.4 98.42 52.4H95.3V61.5ZM96.379 60.473V53.427H98.355C100.578 53.427 101.904 54.753 101.904 56.95C101.904 59.147 100.578 60.473 98.355 60.473H96.379ZM107.794 61.656C109.822 61.656 111.265 60.226 111.265 58.198C111.265 56.17 109.822 54.74 107.794 54.74C105.766 54.74 104.336 56.17 104.336 58.198C104.336 60.226 105.766 61.656 107.794 61.656ZM105.376 58.198C105.376 56.729 106.377 55.715 107.794 55.715C109.224 55.715 110.225 56.729 110.225 58.198C110.225 59.667 109.224 60.681 107.794 60.681C106.377 60.681 105.376 59.667 105.376 58.198ZM114.158 61.5H115.328L116.095 59.446L117.122 56.651L118.903 61.5H120.073L122.374 54.896H121.282L120.502 57.184L119.475 60.187L117.616 55.182H116.628L114.769 60.187L113.742 57.184L112.975 54.896H111.87L114.158 61.5ZM123.874 61.5H124.914V58.055C124.914 56.664 125.746 55.78 127.072 55.78C128.229 55.78 128.879 56.495 128.879 57.743V61.5H129.919V57.574C129.919 55.91 128.866 54.805 127.241 54.805C126.214 54.805 125.473 55.195 124.901 55.988V54.896H123.874V61.5ZM132.19 61.5H133.23V51.88H132.19V61.5ZM138.504 61.656C140.532 61.656 141.975 60.226 141.975 58.198C141.975 56.17 140.532 54.74 138.504 54.74C136.476 54.74 135.046 56.17 135.046 58.198C135.046 60.226 136.476 61.656 138.504 61.656ZM136.086 58.198C136.086 56.729 137.087 55.715 138.504 55.715C139.934 55.715 140.935 56.729 140.935 58.198C140.935 59.667 139.934 60.681 138.504 60.681C137.087 60.681 136.086 59.667 136.086 58.198ZM145.499 61.591C146.539 61.591 147.475 61.149 147.982 60.447L147.995 61.5H148.983V57.249C148.983 55.676 147.982 54.792 146.162 54.792C145.291 54.792 144.55 54.987 143.601 55.455L143.913 56.326C144.706 55.936 145.395 55.754 146.097 55.754C147.371 55.754 147.969 56.235 147.969 57.262V57.743C147.267 57.483 146.539 57.353 145.85 57.353C144.186 57.353 143.12 58.224 143.12 59.55C143.12 60.772 144.082 61.591 145.499 61.591ZM144.16 59.498C144.16 58.705 144.823 58.237 145.967 58.237C146.552 58.237 147.228 58.367 147.982 58.614V58.705C147.982 59.823 147.02 60.681 145.681 60.681C144.719 60.681 144.16 60.226 144.16 59.498ZM154.001 61.656C155.093 61.656 156.003 61.188 156.575 60.408V61.5H157.602V51.88H156.562V55.975C155.99 55.208 155.08 54.74 154.001 54.74C152.077 54.74 150.712 56.17 150.712 58.198C150.712 60.226 152.077 61.656 154.001 61.656ZM151.752 58.198C151.752 56.729 152.74 55.715 154.17 55.715C155.587 55.715 156.575 56.729 156.575 58.198C156.575 59.667 155.587 60.681 154.17 60.681C152.753 60.681 151.752 59.667 151.752 58.198ZM164.923 61.591C165.963 61.591 166.899 61.149 167.406 60.447L167.419 61.5H168.407V57.249C168.407 55.676 167.406 54.792 165.586 54.792C164.715 54.792 163.974 54.987 163.025 55.455L163.337 56.326C164.13 55.936 164.819 55.754 165.521 55.754C166.795 55.754 167.393 56.235 167.393 57.262V57.743C166.691 57.483 165.963 57.353 165.274 57.353C163.61 57.353 162.544 58.224 162.544 59.55C162.544 60.772 163.506 61.591 164.923 61.591ZM163.584 59.498C163.584 58.705 164.247 58.237 165.391 58.237C165.976 58.237 166.652 58.367 167.406 58.614V58.705C167.406 59.823 166.444 60.681 165.105 60.681C164.143 60.681 163.584 60.226 163.584 59.498ZM174.283 61.656C176.194 61.656 177.572 60.226 177.572 58.198C177.572 56.17 176.194 54.74 174.283 54.74C173.204 54.74 172.294 55.221 171.709 56.001V54.896H170.682V64.49H171.722V60.421C172.294 61.188 173.204 61.656 174.283 61.656ZM171.709 58.198C171.709 56.742 172.71 55.715 174.114 55.715C175.531 55.715 176.532 56.729 176.532 58.198C176.532 59.667 175.531 60.681 174.114 60.681C172.71 60.681 171.709 59.654 171.709 58.198ZM182.992 61.656C184.903 61.656 186.281 60.226 186.281 58.198C186.281 56.17 184.903 54.74 182.992 54.74C181.913 54.74 181.003 55.221 180.418 56.001V54.896H179.391V64.49H180.431V60.421C181.003 61.188 181.913 61.656 182.992 61.656ZM180.418 58.198C180.418 56.742 181.419 55.715 182.823 55.715C184.24 55.715 185.241 56.729 185.241 58.198C185.241 59.667 184.24 60.681 182.823 60.681C181.419 60.681 180.418 59.654 180.418 58.198Z" fill="#53585E"/>
<path d="M52.4075 14.7969C52.0631 14.7969 51.7969 15.0787 51.7969 15.4075V21.5768C51.7969 21.9213 52.0787 22.1875 52.4075 22.1875H58.5768C58.9213 22.1875 59.1875 21.9056 59.1875 21.5768V15.4075C59.1875 15.0631 58.9056 14.7969 58.5768 14.7969H52.4075ZM51.7969 59.1875V57.3398C51.7969 56.322 52.6267 55.4922 53.6445 55.4922C54.6623 55.4922 55.4922 56.322 55.4922 57.3398V59.1875H59.1875V57.3398C59.1875 56.322 60.0173 55.4922 61.0351 55.4922C62.0529 55.4922 62.8828 56.322 62.8828 57.3398V61.0351C62.8828 62.0529 62.0529 62.8828 61.0351 62.8828H46.2383C45.2205 62.8828 44.3906 62.0529 44.3906 61.0351V57.3398C44.3906 56.322 45.2205 55.4922 46.2383 55.4922C47.256 55.4922 48.0859 56.322 48.0859 57.3398V59.1875H51.7969ZM40.6953 33.3047H42.543C43.5607 33.3047 44.3906 34.1346 44.3906 35.1523C44.3906 36.1701 43.5607 37 42.543 37H35.1367C34.1189 37 33.289 36.1701 33.289 35.1523C33.289 34.1346 34.1189 33.3047 35.1367 33.3047H36.9843V29.5937H31.4414C30.4236 29.5937 29.5937 28.7639 29.5937 27.7461C29.5937 26.7283 30.4236 25.8984 31.4414 25.8984H42.543C43.5607 25.8984 44.3906 26.7283 44.3906 27.7461C44.3906 28.7639 43.5607 29.5937 42.543 29.5937H40.6953V33.3047ZM59.1875 37H57.3398C56.322 37 55.4922 36.1701 55.4922 35.1523C55.4922 34.1346 56.322 33.3047 57.3398 33.3047H59.1875V31.457C59.1875 30.4393 60.0173 29.6094 61.0351 29.6094C62.0529 29.6094 62.8828 30.4393 62.8828 31.457V38.8633C62.8828 39.8811 62.0529 40.711 61.0351 40.711C60.0173 40.711 59.1875 39.8811 59.1875 38.8633V37ZM40.6953 44.3906H38.8477C37.8299 44.3906 37 43.5607 37 42.543C37 41.5252 37.8299 40.6953 38.8477 40.6953H42.543C43.5607 40.6953 44.3906 41.5252 44.3906 42.543V49.9492C44.3906 50.967 43.5607 51.7969 42.543 51.7969H31.4414C30.4236 51.7969 29.5937 50.967 29.5937 49.9492C29.5937 48.9314 30.4236 48.1016 31.4414 48.1016H40.6953V44.3906ZM52.4075 11.1016H58.5768C60.9568 11.1016 62.8984 13.0275 62.8984 15.4232V21.5925C62.8984 23.9725 60.9725 25.9141 58.5768 25.9141H52.4075C50.0275 25.9141 48.0859 23.9881 48.0859 21.5925V15.4075C48.1016 13.0275 50.0275 11.1016 52.4075 11.1016ZM15.4075 11.1016H21.5768C23.9568 11.1016 25.8984 13.0275 25.8984 15.4232V21.5925C25.8984 23.9725 23.9725 25.9141 21.5768 25.9141H15.4075C13.0275 25.9141 11.0859 23.9881 11.0859 21.5925V15.4075C11.1016 13.0275 13.0275 11.1016 15.4075 11.1016ZM15.4075 14.7969C15.0631 14.7969 14.7969 15.0787 14.7969 15.4075V21.5768C14.7969 21.9213 15.0787 22.1875 15.4075 22.1875H21.5768C21.9213 22.1875 22.1875 21.9056 22.1875 21.5768V15.4075C22.1875 15.0631 21.9056 14.7969 21.5768 14.7969H15.4075ZM15.4075 48.1016H21.5768C23.9568 48.1016 25.8984 50.0275 25.8984 52.4232V58.5925C25.8984 60.9725 23.9725 62.9141 21.5768 62.9141H15.4075C13.0275 62.9141 11.0859 60.9882 11.0859 58.5925V52.4232C11.1016 50.0275 13.0275 48.1016 15.4075 48.1016ZM15.4075 51.7969C15.0631 51.7969 14.7969 52.0787 14.7969 52.4075V58.5768C14.7969 58.9213 15.0787 59.1875 15.4075 59.1875H21.5768C21.9213 59.1875 22.1875 58.9056 22.1875 58.5768V52.4075C22.1875 52.0631 21.9056 51.7969 21.5768 51.7969H15.4075ZM40.6953 14.7969H31.4414C30.4236 14.7969 29.5937 13.967 29.5937 12.9492C29.5937 11.9314 30.4236 11.1016 31.4414 11.1016H42.543C43.5607 11.1016 44.3906 11.9314 44.3906 12.9492V20.3555C44.3906 21.3733 43.5607 22.2031 42.543 22.2031C41.5252 22.2031 40.6953 21.3733 40.6953 20.3555V14.7969ZM31.4414 22.2031C30.4236 22.2031 29.5937 21.3733 29.5937 20.3555C29.5937 19.3377 30.4236 18.5078 31.4414 18.5078H35.1367C36.1545 18.5078 36.9843 19.3377 36.9843 20.3555C36.9843 21.3733 36.1545 22.2031 35.1367 22.2031H31.4414ZM12.9492 44.3906C11.9314 44.3906 11.1016 43.5607 11.1016 42.543C11.1016 41.5252 11.9314 40.6953 12.9492 40.6953H20.3555C21.3733 40.6953 22.2031 41.5252 22.2031 42.543C22.2031 43.5607 21.3733 44.3906 20.3555 44.3906H12.9492ZM27.7461 44.3906C26.7283 44.3906 25.8984 43.5607 25.8984 42.543C25.8984 41.5252 26.7283 40.6953 27.7461 40.6953H31.4414C32.4592 40.6953 33.289 41.5252 33.289 42.543C33.289 43.5607 32.4592 44.3906 31.4414 44.3906H27.7461ZM33.3047 59.1875V61.0351C33.3047 62.0529 32.4748 62.8828 31.457 62.8828C30.4393 62.8828 29.6094 62.0529 29.6094 61.0351V57.3398C29.6094 56.322 30.4393 55.4922 31.457 55.4922H38.8633C39.8811 55.4922 40.711 56.322 40.711 57.3398C40.711 58.3576 39.8811 59.1875 38.8633 59.1875H33.3047ZM25.8984 33.3047H27.7461C28.7639 33.3047 29.5937 34.1346 29.5937 35.1523C29.5937 36.1701 28.7639 37 27.7461 37H24.0508C23.033 37 22.2031 36.1701 22.2031 35.1523V33.3047H20.3555C19.3377 33.3047 18.5078 32.4748 18.5078 31.457C18.5078 30.4393 19.322 29.5937 20.3555 29.5937H24.0508C25.0686 29.5937 25.8984 30.4236 25.8984 31.4414V33.3047ZM11.1016 31.4414C11.1016 30.4236 11.9314 29.5937 12.9492 29.5937C13.967 29.5937 14.7969 30.4236 14.7969 31.4414V35.1367C14.7969 36.1545 13.967 36.9843 12.9492 36.9843C11.9314 36.9843 11.1016 36.1545 11.1016 35.1367V31.4414ZM48.1016 31.4414C48.1016 30.4236 48.9314 29.5937 49.9492 29.5937C50.967 29.5937 51.7969 30.4236 51.7969 31.4414V38.8477C51.7969 39.8654 50.967 40.6953 49.9492 40.6953C48.9314 40.6953 48.1016 39.8654 48.1016 38.8477V31.4414ZM55.4922 48.1016V46.2539C55.4922 45.2361 56.322 44.4063 57.3398 44.4063H61.0351C62.0529 44.4063 62.8828 45.2361 62.8828 46.2539C62.8828 47.2717 62.0529 48.1016 61.0351 48.1016H59.1875V49.9492C59.1875 50.967 58.3576 51.7969 57.3398 51.7969H49.9492C48.9314 51.7969 48.1016 50.967 48.1016 49.9492V46.2539C48.1016 45.2361 48.9314 44.4063 49.9492 44.4063C50.967 44.4063 51.7969 45.2361 51.7969 46.2539V48.1016H55.4922ZM3.6953 16.6445C3.6953 17.6623 2.86543 18.4922 1.84765 18.4922C0.829877 18.4922 0 17.678 0 16.6445V9.25391C0 4.13373 4.13373 0 9.25391 0H16.6602C17.678 0 18.5078 0.829877 18.5078 1.84765C18.5078 2.86543 17.678 3.6953 16.6602 3.6953H9.25391C6.18493 3.6953 3.71096 6.18493 3.71096 9.23826V16.6445H3.6953ZM57.3398 3.6953C56.322 3.6953 55.4922 2.86543 55.4922 1.84765C55.4922 0.829877 56.322 0 57.3398 0H64.7461C69.8506 0 74 4.13373 74 9.25391V16.6602C74 17.678 73.1701 18.5078 72.1523 18.5078C71.1346 18.5078 70.3047 17.678 70.3047 16.6602V9.25391C70.3047 6.18493 67.8151 3.71096 64.7617 3.71096H57.3398V3.6953ZM16.6445 70.289C17.6623 70.289 18.4922 71.1189 18.4922 72.1367C18.4922 73.1545 17.6623 73.9843 16.6445 73.9843H9.25391C4.13373 74 0 69.8506 0 64.7461V57.3398C0 56.322 0.829877 55.4922 1.84765 55.4922C2.86543 55.4922 3.6953 56.322 3.6953 57.3398V64.7461C3.6953 67.8151 6.18493 70.289 9.23826 70.289H16.6445ZM70.289 57.3398C70.289 56.322 71.1189 55.4922 72.1367 55.4922C73.1545 55.4922 73.9843 56.322 73.9843 57.3398V64.7461C73.9843 69.8506 69.8506 74 64.7304 74H57.3242C56.3064 74 55.4765 73.1701 55.4765 72.1523C55.4765 71.1346 56.3064 70.3047 57.3242 70.3047H64.7304C67.7994 70.3047 70.2734 67.8151 70.2734 64.7617V57.3398H70.289Z" fill="#15162A"/>
</svg>
