<svg width="56" height="61" viewBox="0 0 56 61" fill="none" xmlns="http://www.w3.org/2000/svg">
<rect width="56" height="61" rx="10" fill="#15162A"/>
<path d="M20.125 22.7969L35.875 22.7969C36.4844 22.7969 37 22.2813 37 21.6719C37 21.0156 36.4844 20.5 35.875 20.5L20.125 20.5C19.4688 20.5 19 21.0156 19 21.6719C19 22.2812 19.4688 22.7969 20.125 22.7969ZM22.7969 33.2969L26.875 28.9844L26.875 40.375C26.875 41.0312 27.3437 41.5 28 41.5C28.6094 41.5 29.125 41.0312 29.125 40.375L29.125 28.9844L33.1562 33.2969C33.3906 33.5312 33.6719 33.625 34 33.625C34.2344 33.625 34.5156 33.5312 34.75 33.3438C35.2188 32.9219 35.2188 32.1719 34.7969 31.75L28.7969 25.3281C28.375 24.9062 27.5781 24.9062 27.1562 25.3281L21.1562 31.75C20.7344 32.1719 20.7344 32.9219 21.2031 33.3438C21.6719 33.7656 22.375 33.7188 22.7969 33.2969Z" fill="white"/>
</svg>
