<svg width="110" height="110" viewBox="0 0 110 110" fill="none" xmlns="http://www.w3.org/2000/svg">
<path d="M54.577 86.9767C72.1014 86.9767 86.3077 72.6602 86.3077 54.9999C86.3077 37.3397 72.1014 23.0232 54.577 23.0232C37.0525 23.0232 22.8462 37.3397 22.8462 54.9999C22.8462 72.6602 37.0525 86.9767 54.577 86.9767Z" fill="#15162A"/>
<path d="M47.3845 56.8252L48.7981 55.4148L53.5702 60.1557V45.1938H55.5749V60.1557L60.3555 55.4148L61.7691 56.8252L54.5811 63.9535L47.3845 56.8252Z" fill="white"/>
<path opacity="0.4" d="M6.494 46.7795L6.09838 46.3432C6.06693 46.3169 6.04152 46.2831 6.024 46.2445C6.00649 46.2059 5.99739 46.1635 5.99739 46.1205C5.99739 46.0775 6.00649 46.0351 6.024 45.9965C6.04152 45.9579 6.06693 45.9242 6.09838 45.8978C6.40533 45.7001 6.67182 45.437 6.88161 45.1244C7.0914 44.8119 7.24017 44.4565 7.31874 44.08C7.37379 43.9167 7.39752 43.7431 7.3885 43.5696C7.37947 43.3961 7.33788 43.2264 7.26625 43.0709C7.19461 42.9153 7.09444 42.7771 6.97181 42.6646C6.84918 42.5521 6.70662 42.4678 6.55287 42.4167C5.86277 42.244 5.29048 42.7802 4.54989 43.8982C3.80929 45.0162 2.95931 45.8887 1.62961 45.5615C0.737524 45.3343 -0.331349 44.2799 0.0978605 42.3076C0.283029 41.486 0.690235 40.7425 1.26768 40.1716C1.29364 40.1419 1.325 40.1182 1.35973 40.102C1.39446 40.0859 1.43183 40.0775 1.46965 40.0775C1.50748 40.0775 1.54495 40.0859 1.57968 40.102C1.61441 40.1182 1.64566 40.1419 1.67162 40.1716L2.04198 40.5988C2.07242 40.6278 2.09677 40.6635 2.11348 40.7034C2.13018 40.7434 2.13885 40.7867 2.13885 40.8306C2.13885 40.8744 2.13018 40.9177 2.11348 40.9577C2.09677 40.9977 2.07242 41.0333 2.04198 41.0623C1.58547 41.454 1.25551 41.9917 1.0994 42.5984C1.0399 42.759 1.01175 42.9312 1.01681 43.104C1.02186 43.2769 1.06002 43.4468 1.12878 43.603C1.19754 43.7592 1.29549 43.8983 1.41644 44.0117C1.53738 44.1251 1.67871 44.2102 1.83158 44.2618C2.48802 44.4254 3.0098 43.9709 3.61574 43.0347C4.45733 41.7259 5.36623 40.6533 6.76327 40.9987C7.07022 41.1018 7.35506 41.27 7.60105 41.4935C7.84704 41.717 8.0492 41.9913 8.19577 42.3003C8.34235 42.6092 8.43041 42.9467 8.45466 43.2929C8.47891 43.6391 8.43889 43.987 8.33703 44.3163C8.13304 45.2978 7.60687 46.1664 6.85583 46.7613C6.76325 46.8977 6.66232 46.9795 6.494 46.7795Z" fill="#15162A"/>
<path opacity="0.4" d="M4.6664 29.4965C5.10837 28.498 5.90277 27.7149 6.88472 27.3097C6.91248 27.2957 6.94286 27.2879 6.97373 27.287C7.00459 27.286 7.03525 27.2919 7.06375 27.3043C7.09225 27.3167 7.11787 27.3352 7.13896 27.3586C7.16005 27.3821 7.17612 27.41 7.18607 27.4404L7.43723 28.1635C7.49583 28.2855 7.43721 28.39 7.30327 28.4423C6.6187 28.7564 6.05968 29.3074 5.72115 30.0018C5.55519 30.3734 5.46151 30.7755 5.44535 31.185C5.4292 31.5945 5.49091 32.0033 5.62704 32.3878C5.76317 32.7724 5.97096 33.1251 6.23851 33.4258C6.50606 33.7265 6.82809 33.9692 7.18607 34.14C7.53968 34.3227 7.92462 34.4307 8.31857 34.4578C8.71253 34.4848 9.10772 34.4303 9.48133 34.2974C9.85494 34.1646 10.1996 33.956 10.4953 33.6838C10.791 33.4115 11.0319 33.0809 11.2042 32.7112C11.5201 32.0082 11.5825 31.2104 11.3799 30.4635C11.365 30.4113 11.3687 30.3554 11.3902 30.3058C11.4118 30.2562 11.4497 30.2163 11.4971 30.1934L12.2003 29.9234C12.2569 29.904 12.3186 29.9087 12.3719 29.9364C12.4252 29.9642 12.4658 30.0127 12.4849 30.0715C12.8213 31.1245 12.7461 32.273 12.2757 33.2688C12.0438 33.7967 11.7129 34.2711 11.3024 34.664C10.8919 35.057 10.41 35.3606 9.88516 35.557C9.36032 35.7534 8.80308 35.8387 8.24613 35.8078C7.68918 35.7769 7.14374 35.6305 6.64193 35.3771C6.13689 35.1311 5.68418 34.7825 5.31037 34.3519C4.93656 33.9213 4.64924 33.4172 4.4652 32.8694C4.28117 32.3216 4.2042 31.741 4.23876 31.1618C4.27332 30.5826 4.41866 30.0164 4.6664 29.4965Z" fill="#15162A"/>
<path opacity="0.4" d="M9.37372 21.6466C9.35277 21.6267 9.3362 21.603 9.32485 21.5768C9.31349 21.5507 9.30762 21.5226 9.30762 21.4943C9.30762 21.466 9.31349 21.4379 9.32485 21.4118C9.3362 21.3857 9.35277 21.362 9.37372 21.3421L11.4182 18.8731C11.6258 18.6128 11.8853 18.3949 12.1814 18.2322C12.4775 18.0694 12.8042 17.9651 13.1427 17.9253C13.4812 17.8854 13.8246 17.9109 14.1527 18.0001C14.4808 18.0894 14.7872 18.2407 15.0539 18.4452C15.4637 18.7804 15.7584 19.2272 15.8989 19.7267C16.0394 20.2263 16.0192 20.755 15.8409 21.2433L19.2627 21.8359C19.3035 21.8414 19.3419 21.8572 19.3741 21.8818C19.4064 21.9064 19.4312 21.9389 19.446 21.9758C19.4608 22.0127 19.4651 22.0528 19.4584 22.0918C19.4518 22.1309 19.4344 22.1675 19.4081 22.198L18.8436 22.8728C18.8133 22.9157 18.7697 22.9483 18.719 22.9661C18.6683 22.9838 18.6131 22.9857 18.5612 22.9716L15.1394 22.2803L14.0017 23.6382L16.3799 25.4734C16.4208 25.516 16.4435 25.5718 16.4435 25.6298C16.4435 25.6878 16.4208 25.7436 16.3799 25.7862L15.8922 26.3705C15.8715 26.3907 15.8469 26.4066 15.8197 26.4176C15.7926 26.4285 15.7634 26.4341 15.734 26.4341C15.7046 26.4341 15.6754 26.4285 15.6483 26.4176C15.6211 26.4066 15.5964 26.3907 15.5757 26.3705L9.37372 21.6466ZM14.5064 21.3997C14.7454 21.1036 14.8542 20.7292 14.8094 20.3568C14.7646 19.9844 14.5699 19.6438 14.2669 19.408C13.9616 19.1885 13.5796 19.0916 13.2014 19.1377C12.8232 19.1837 12.4783 19.3692 12.2394 19.655L10.8964 21.2598L13.1634 23.0127L14.5064 21.3997Z" fill="#15162A"/>
<path opacity="0.4" d="M21.1275 9.42024C21.5672 9.0746 22.0709 8.82087 22.609 8.67395C23.1471 8.52703 23.7088 8.48988 24.2613 8.56463C24.8139 8.63938 25.3461 8.82454 25.8268 9.10929C26.3074 9.39403 26.7269 9.77261 27.0606 10.2229C27.3986 10.6682 27.6453 11.177 27.7862 11.7194C27.9272 12.2619 27.9596 12.8272 27.8815 13.3824C27.8035 13.9376 27.6166 14.4716 27.3318 14.9532C27.047 15.4349 26.67 15.8546 26.2226 16.1877C25.3409 16.8663 24.2282 17.1647 23.1285 17.0174C22.0289 16.8701 21.0321 16.2892 20.3566 15.402C20.0125 14.9603 19.7591 14.4539 19.6114 13.9123C19.4637 13.3707 19.4246 12.8049 19.4963 12.2479C19.5681 11.6909 19.7494 11.154 20.0295 10.6684C20.3096 10.1829 20.6828 9.75857 21.1275 9.42024ZM25.5438 15.2753C26.1868 14.7752 26.6083 14.0395 26.7165 13.228C26.8248 12.4165 26.6112 11.5947 26.1221 10.941C25.6256 10.2919 24.8966 9.86478 24.0914 9.75107C23.2863 9.63736 22.469 9.84615 21.8148 10.3327C21.1774 10.8394 20.7619 11.5774 20.657 12.3888C20.5521 13.2003 20.7661 14.0209 21.2533 14.6754C21.7453 15.3258 22.4724 15.7537 23.276 15.8661C24.0797 15.9785 24.8948 15.7661 25.5438 15.2753Z" fill="#15162A"/>
<path opacity="0.4" d="M30.4835 4.03436C30.4705 4.008 30.4631 3.97945 30.4617 3.95032C30.4602 3.9212 30.4648 3.89208 30.4752 3.86466C30.4855 3.83723 30.5014 3.81202 30.5219 3.7905C30.5425 3.76898 30.5673 3.75156 30.5949 3.73923L31.3228 3.4277C31.3786 3.40563 31.4411 3.40528 31.4971 3.42672C31.5531 3.44816 31.5982 3.48971 31.6227 3.54248L34.509 9.6912L37.4808 8.40406C37.5355 8.38144 37.5972 8.3799 37.653 8.39976C37.7089 8.41961 37.7546 8.45934 37.7806 8.51064L38.0546 9.08451C38.0676 9.11087 38.0751 9.13944 38.0765 9.16857C38.078 9.1977 38.0734 9.22681 38.0631 9.25424C38.0527 9.28166 38.0368 9.30684 38.0162 9.32837C37.9957 9.34989 37.9709 9.36733 37.9433 9.37966L34.0293 11.0685C33.9736 11.0906 33.911 11.0909 33.855 11.0695C33.799 11.048 33.754 11.0065 33.7295 10.9537L30.4835 4.03436Z" fill="#15162A"/>
<path opacity="0.4" d="M39.7767 0.477173C39.7688 0.447312 39.7672 0.41619 39.772 0.385701C39.7768 0.355213 39.788 0.326013 39.8048 0.299854C39.8217 0.273696 39.8437 0.251124 39.8698 0.23355C39.8959 0.215975 39.9254 0.203745 39.9566 0.197611L40.766 0.0054427C40.828 -0.00770894 40.8928 0.00318489 40.9466 0.0358357C41.0004 0.0684864 41.0389 0.120287 41.0539 0.180149L42.7446 7.16903L46.0814 6.409C46.1115 6.40116 46.1429 6.39926 46.1738 6.4034C46.2047 6.40754 46.2344 6.41763 46.2612 6.4331C46.288 6.44857 46.3114 6.46909 46.3299 6.49346C46.3485 6.51783 46.3618 6.54554 46.3691 6.57499L46.5311 7.23019C46.539 7.26006 46.5406 7.29118 46.5358 7.32167C46.531 7.35215 46.5198 7.38135 46.503 7.40751C46.4861 7.43367 46.464 7.45624 46.4379 7.47382C46.4118 7.49139 46.3823 7.50362 46.3511 7.50976L41.9712 8.52315C41.9094 8.53411 41.8457 8.52225 41.7924 8.48993C41.7392 8.45761 41.7003 8.40715 41.6834 8.34841L39.7767 0.477173Z" fill="#15162A"/>
<path opacity="0.4" d="M56.726 5.1169C56.8378 5.12076 56.9478 5.14707 57.0494 5.1943C57.1511 5.24152 57.2423 5.30871 57.3178 5.39192C57.3934 5.47514 57.4517 5.5727 57.4894 5.67892C57.5271 5.78514 57.5433 5.89788 57.5373 6.01052C57.5218 6.23753 57.4188 6.44943 57.2503 6.60087C57.0819 6.75231 56.8614 6.83127 56.6359 6.82084C56.4153 6.80716 56.209 6.70655 56.0614 6.54076C55.9138 6.37497 55.8368 6.1573 55.8471 5.93478C55.8569 5.70911 55.9548 5.49649 56.1194 5.34327C56.2841 5.19006 56.5021 5.10869 56.726 5.1169Z" fill="#15162A"/>
<path opacity="0.4" d="M71.3604 1.00624C71.38 0.949032 71.4211 0.902071 71.4745 0.875631C71.5279 0.849191 71.5894 0.845419 71.6455 0.865135L74.2366 1.86165C75.288 2.26233 76.1415 3.07141 76.6108 4.11229C77.08 5.15317 77.127 6.34135 76.7414 7.41744C76.3439 8.49475 75.5442 9.36713 74.5177 9.84325C73.4912 10.3194 72.3215 10.3603 71.2654 9.9572L68.6743 8.96951C68.6208 8.94437 68.5786 8.89948 68.5562 8.84386C68.5338 8.78823 68.5327 8.72601 68.5533 8.66968L71.3604 1.00624ZM71.5678 8.81078C71.9452 8.96812 72.3503 9.04422 72.7579 9.03432C73.1655 9.02441 73.5667 8.92873 73.9364 8.75324C74.3061 8.57775 74.6364 8.32623 74.9065 8.01444C75.1766 7.70265 75.3808 7.33729 75.5062 6.94122C75.6653 6.56227 75.7465 6.15405 75.7449 5.74179C75.7434 5.32952 75.6591 4.92195 75.4972 4.54426C75.3353 4.16658 75.0993 3.82679 74.8037 3.54589C74.5082 3.26499 74.1594 3.04894 73.7788 2.91108L72.2414 2.32904L70.0821 8.22874L71.5678 8.81078Z" fill="#15162A"/>
<path opacity="0.4" d="M87.0442 8.46011C87.5 8.77986 87.8884 9.1875 88.187 9.65947C88.4855 10.1315 88.6883 10.6584 88.7836 11.2099C88.879 11.7613 88.865 12.3264 88.7424 12.8724C88.6198 13.4184 88.3911 13.9344 88.0695 14.3907C87.7517 14.8496 87.3468 15.2404 86.8783 15.5405C86.4098 15.8407 85.8869 16.0443 85.3399 16.1397C84.7929 16.235 84.2326 16.2201 83.6914 16.0959C83.1501 15.9716 82.6386 15.7405 82.1864 15.4159C81.7307 15.0961 81.3422 14.6885 81.0437 14.2165C80.7451 13.7446 80.5422 13.2176 80.4469 12.6661C80.3516 12.1147 80.3657 11.5496 80.4882 11.0036C80.6108 10.4577 80.8395 9.94159 81.1611 9.48526C81.479 9.02644 81.8837 8.63567 82.3522 8.33549C82.8207 8.03531 83.3436 7.83166 83.8906 7.73634C84.4376 7.64102 84.998 7.65591 85.5393 7.78014C86.0805 7.90437 86.592 8.13547 87.0442 8.46011ZM82.842 14.5093C83.5134 14.9729 84.3381 15.1526 85.1395 15.0101C85.9408 14.8675 86.6548 14.414 87.1282 13.7468C87.5959 13.0719 87.783 12.2392 87.6495 11.427C87.516 10.6147 87.0725 9.88739 86.4139 9.40053C85.7362 8.94555 84.9098 8.77345 84.1087 8.92042C83.3077 9.06739 82.5945 9.52198 82.1193 10.1885C81.6513 10.8574 81.4621 11.6846 81.5925 12.4925C81.723 13.3005 82.1625 14.0246 82.8168 14.5093H82.842Z" fill="#15162A"/>
<path opacity="0.4" d="M94.4956 15.4536C94.5129 15.4219 94.5383 15.3954 94.5691 15.377C94.5999 15.3586 94.635 15.3489 94.6707 15.3489C94.7065 15.3489 94.7416 15.3586 94.7724 15.377C94.8032 15.3954 94.8285 15.4219 94.8459 15.4536L95.3381 16.0625C95.3643 16.1026 95.3782 16.1497 95.3782 16.1978C95.3782 16.2459 95.3643 16.2929 95.3381 16.3331L92.0849 20.8913V20.9336L97.5652 18.8871C97.6059 18.875 97.6493 18.8758 97.6895 18.8894C97.7298 18.903 97.765 18.9288 97.7904 18.9632L97.9239 19.1238C97.9472 19.1588 97.9597 19.2 97.9597 19.2422C97.9597 19.2844 97.9472 19.3257 97.9239 19.3606L94.8709 24.4347L99.8758 22.0837C99.9201 22.0681 99.9678 22.0653 100.013 22.0758C100.059 22.0862 100.101 22.1095 100.134 22.1429L100.627 22.7603C100.653 22.7848 100.673 22.8162 100.684 22.8512C100.694 22.8861 100.695 22.9233 100.687 22.9588C100.678 22.9943 100.66 23.0269 100.635 23.0529C100.61 23.079 100.578 23.0977 100.543 23.107L93.0358 26.4136C92.9923 26.4341 92.9433 26.4395 92.8965 26.4287C92.8497 26.418 92.8078 26.3919 92.7772 26.3544L92.6604 26.2107C92.6383 26.1737 92.6267 26.1313 92.6267 26.088C92.6267 26.0448 92.6383 26.0024 92.6604 25.9654L95.8553 20.6207V20.57L90.0745 22.7095C90.0345 22.7214 89.9921 22.7213 89.9521 22.7093C89.9122 22.6973 89.8765 22.6739 89.8493 22.6419L89.7326 22.4896C89.7064 22.4495 89.6924 22.4025 89.6924 22.3544C89.6924 22.3062 89.7064 22.2592 89.7326 22.219L94.4956 15.4536Z" fill="#15162A"/>
<path opacity="0.4" d="M103.905 29.0083C103.931 28.9976 103.959 28.9921 103.987 28.9922C104.015 28.9922 104.043 28.9978 104.068 29.0086C104.094 29.0193 104.117 29.0351 104.137 29.0549C104.156 29.0747 104.172 29.0982 104.182 29.1239V29.2064C104.219 29.2645 104.239 29.3317 104.239 29.4004C104.239 29.469 104.219 29.5363 104.182 29.5943L100.971 36.3377L106.001 34.1092C106.028 34.0968 106.056 34.0897 106.086 34.0884C106.115 34.0872 106.144 34.0917 106.171 34.1017C106.199 34.1117 106.224 34.127 106.245 34.1467C106.266 34.1664 106.283 34.1902 106.295 34.2165L106.597 34.9015C106.62 34.9542 106.621 35.0137 106.601 35.0675C106.581 35.1213 106.54 35.1654 106.488 35.1904L99.2684 38.3599C99.2147 38.3777 99.1563 38.3759 99.1039 38.3546C99.0516 38.3334 99.0087 38.2942 98.9834 38.2443L98.9414 38.1453C98.9056 38.0897 98.8867 38.0253 98.8867 37.9596C98.8867 37.8938 98.9056 37.8294 98.9414 37.7739L102.295 30.948L97.0716 33.2425C97.0453 33.2549 97.0167 33.262 96.9875 33.2632C96.9583 33.2645 96.9292 33.26 96.9018 33.25C96.8744 33.24 96.8494 33.2247 96.8281 33.205C96.8069 33.1853 96.7899 33.1615 96.7782 33.1352L96.4763 32.4667C96.4559 32.4128 96.4565 32.3533 96.4782 32.2999C96.4999 32.2464 96.541 32.2029 96.5936 32.1778L103.905 29.0083Z" fill="#15162A"/>
<path opacity="0.4" d="M104.071 49.3472C104.097 49.575 104.032 49.8038 103.89 49.9833C103.749 50.1629 103.543 50.2788 103.317 50.3055C103.206 50.3171 103.094 50.3066 102.988 50.2746C102.881 50.2426 102.782 50.1898 102.696 50.1192C102.61 50.0485 102.538 49.9614 102.485 49.8629C102.433 49.7644 102.4 49.6563 102.388 49.5449C102.367 49.3204 102.434 49.0965 102.576 48.9215C102.717 48.7465 102.921 48.6344 103.143 48.6095C103.363 48.5858 103.583 48.6497 103.757 48.7876C103.93 48.9255 104.043 49.1263 104.071 49.3472Z" fill="#15162A"/>
<path opacity="0.4" d="M103.413 60.6147L103.831 61.0012C103.861 61.0256 103.885 61.0564 103.901 61.0912C103.918 61.1261 103.926 61.1642 103.926 61.2028C103.926 61.2414 103.918 61.2795 103.901 61.3144C103.885 61.3493 103.861 61.38 103.831 61.4045C103.539 61.6028 103.289 61.8582 103.097 62.1556C102.904 62.4529 102.773 62.7861 102.712 63.1353C102.664 63.2886 102.647 63.4502 102.664 63.6101C102.68 63.77 102.729 63.9248 102.807 64.065C102.886 64.2051 102.992 64.3277 103.119 64.425C103.246 64.5223 103.392 64.5924 103.547 64.6309C104.241 64.7485 104.784 64.2192 105.452 63.1521C106.121 62.085 106.931 61.228 108.268 61.4717C109.162 61.6229 110.274 62.5388 109.939 64.3872C109.787 65.1533 109.418 65.8591 108.878 66.4206C108.853 66.4492 108.822 66.4721 108.788 66.4878C108.753 66.5035 108.716 66.5116 108.678 66.5116C108.64 66.5116 108.602 66.5035 108.568 66.4878C108.533 66.4721 108.502 66.4492 108.477 66.4206L108.093 66.0509C108.059 66.0287 108.031 65.9995 108.01 65.9652C107.989 65.9309 107.976 65.8925 107.971 65.8525C107.966 65.8125 107.97 65.772 107.982 65.7337C107.995 65.6954 108.015 65.6603 108.043 65.6308C108.465 65.2392 108.757 64.7255 108.878 64.1604C109.045 63.1773 108.494 62.7404 108.043 62.6648C107.391 62.5472 106.898 62.9925 106.371 63.8915C105.594 65.1434 104.759 66.1853 103.355 65.9416C103.045 65.8646 102.753 65.7258 102.497 65.5334C102.242 65.3411 102.027 65.0991 101.865 64.8218C101.704 64.5445 101.6 64.2375 101.559 63.919C101.517 63.6005 101.54 63.2768 101.625 62.9673C101.781 62.0494 102.258 61.2179 102.971 60.6231C103.146 60.5643 103.238 60.4802 103.413 60.6147Z" fill="#15162A"/>
<path opacity="0.4" d="M106.282 76.9378C105.896 77.9707 105.147 78.8069 104.19 79.2724C104.163 79.2886 104.133 79.2984 104.102 79.3014C104.071 79.3043 104.04 79.3002 104.01 79.2893C103.981 79.2785 103.954 79.2611 103.932 79.2385C103.909 79.2158 103.892 79.1883 103.88 79.1579L103.587 78.4443C103.52 78.321 103.587 78.2153 103.705 78.1536C104.373 77.7997 104.903 77.2106 105.202 76.4885C105.35 76.1047 105.424 75.6939 105.419 75.2798C105.415 74.8657 105.333 74.4567 105.177 74.0765C105.021 73.6962 104.795 73.3523 104.513 73.0646C104.23 72.777 103.895 72.5514 103.529 72.4009C103.166 72.2383 102.777 72.1527 102.383 72.1489C101.989 72.1451 101.598 72.2232 101.233 72.3786C100.867 72.5341 100.535 72.764 100.254 73.055C99.9734 73.346 99.7498 73.6926 99.5964 74.0747C99.3236 74.8046 99.3029 75.6121 99.5379 76.3564C99.5565 76.4059 99.5575 76.4609 99.5405 76.5111C99.5236 76.5613 99.49 76.6034 99.4459 76.6295L98.7515 76.9466C98.7241 76.9594 98.6945 76.9661 98.6646 76.9663C98.6347 76.9664 98.6051 76.9601 98.5776 76.9477C98.5501 76.9353 98.5254 76.9171 98.5049 76.8942C98.4844 76.8713 98.4686 76.8441 98.4585 76.8145C98.0522 75.7762 98.0522 74.6108 98.4585 73.5725C98.6618 73.0265 98.9666 72.5287 99.355 72.1084C99.7434 71.688 100.208 71.3536 100.72 71.1246C101.233 70.8957 101.784 70.7769 102.341 70.7752C102.898 70.7734 103.45 70.8888 103.964 71.1146C104.484 71.3301 104.958 71.6533 105.357 72.0649C105.757 72.4765 106.074 72.9682 106.29 73.511C106.506 74.0539 106.617 74.6368 106.615 75.2254C106.614 75.8139 106.5 76.3962 106.282 76.9378Z" fill="#15162A"/>
<path opacity="0.4" d="M101.446 85.5355C101.494 85.5705 101.526 85.6222 101.535 85.6798C101.545 85.7373 101.531 85.7962 101.497 85.8441L99.5865 88.4383C99.3943 88.7139 99.1475 88.9493 98.8605 89.1309C98.5736 89.3124 98.2523 89.4363 97.9156 89.4953C97.5788 89.5544 97.2333 89.5474 96.8994 89.4747C96.5654 89.402 96.2498 89.2652 95.9709 89.0722C95.5426 88.7533 95.2235 88.3158 95.0553 87.8171C94.8871 87.3184 94.8776 86.7819 95.0283 86.2779L91.6011 85.8692C91.5596 85.8666 91.5197 85.8532 91.4854 85.8304C91.451 85.8075 91.4236 85.7761 91.4061 85.7394C91.3886 85.7027 91.3815 85.662 91.3857 85.6218C91.3899 85.5815 91.4051 85.5431 91.4298 85.5105L91.961 84.7932C91.9875 84.7473 92.0286 84.7111 92.0781 84.6901C92.1275 84.669 92.1826 84.6642 92.2352 84.6764L95.6623 85.2019L96.7247 83.7588L94.2401 82.0322C94.1908 81.9985 94.1569 81.9474 94.1457 81.8898C94.1345 81.8322 94.1468 81.7725 94.1801 81.7236L94.6428 81.098C94.6787 81.0514 94.7318 81.0201 94.7909 81.0107C94.85 81.0014 94.9106 81.0147 94.9598 81.048L101.446 85.5355ZM96.3049 86.061C96.0838 86.3741 95.9976 86.7592 96.0649 87.1335C96.1322 87.5078 96.3476 87.8415 96.6648 88.0629C96.9821 88.2708 97.3703 88.3497 97.7466 88.2827C98.1228 88.2156 98.4571 88.008 98.6782 87.7042L99.9292 86.036L97.5559 84.3678L96.3049 86.061Z" fill="#15162A"/>
<path opacity="0.4" d="M90.7335 97.8697C90.3149 98.2398 89.8272 98.5217 89.299 98.6991C88.7709 98.8764 88.2128 98.9455 87.6578 98.9023C87.1028 98.8592 86.5619 98.7046 86.067 98.4477C85.572 98.1907 85.133 97.8367 84.7756 97.4063C84.4149 96.9821 84.1415 96.4898 83.9713 95.9581C83.8011 95.4264 83.7375 94.8659 83.7841 94.3091C83.8308 93.7524 83.9869 93.2105 84.2431 92.7152C84.4994 92.2198 84.8508 91.7808 85.2769 91.4237C85.6944 91.057 86.1801 90.7777 86.7055 90.6019C87.231 90.4262 87.7858 90.3575 88.3378 90.3998C88.8898 90.4422 89.4279 90.5947 89.921 90.8486C90.414 91.1025 90.8521 91.4526 91.2098 91.8787C91.5732 92.3015 91.8495 92.793 92.0225 93.3246C92.1955 93.8562 92.2618 94.4172 92.2175 94.9749C92.1731 95.5326 92.019 96.0758 91.7643 96.5728C91.5095 97.0698 91.1591 97.5107 90.7335 97.8697ZM86.0123 92.2916C85.4008 92.826 85.0223 93.5814 84.9582 94.3948C84.8941 95.2082 85.1497 96.0144 85.6698 96.6395C86.2004 97.2596 86.9511 97.645 87.7605 97.7128C88.57 97.7805 89.3734 97.5252 89.9982 97.0018C90.6046 96.4612 90.9773 95.7028 91.0367 94.8888C91.096 94.0748 90.8372 93.2697 90.3157 92.6455C89.7884 92.0282 89.0413 91.645 88.236 91.5788C87.4307 91.5126 86.6319 91.7686 86.0123 92.2916Z" fill="#15162A"/>
<path opacity="0.4" d="M82.0547 104.206C82.0792 104.259 82.0835 104.319 82.0667 104.374C82.05 104.43 82.0134 104.477 81.964 104.507L81.2796 104.859C81.228 104.886 81.1681 104.891 81.1127 104.874C81.0573 104.857 81.0107 104.818 80.9827 104.767L77.8655 98.657L75.0781 100.13C75.0265 100.157 74.9666 100.162 74.9112 100.145C74.8557 100.128 74.8091 100.089 74.7812 100.038L74.4843 99.4688C74.4585 99.4155 74.4543 99.3539 74.4728 99.2975C74.4914 99.2412 74.5311 99.1944 74.5833 99.1675L78.2448 97.2342C78.2963 97.2073 78.3562 97.2019 78.4117 97.2191C78.4671 97.2363 78.5137 97.2747 78.5416 97.3263L82.0547 104.206Z" fill="#15162A"/>
<path opacity="0.4" d="M71.9126 108.619C71.9217 108.648 71.9249 108.679 71.922 108.71C71.9192 108.741 71.9103 108.771 71.8959 108.798C71.8816 108.825 71.8622 108.849 71.8387 108.868C71.8152 108.887 71.7882 108.901 71.7593 108.91L71.0017 109.139C70.9441 109.155 70.8827 109.148 70.8302 109.118C70.7778 109.089 70.7385 109.039 70.7208 108.98L68.7373 102.029L65.6304 102.981C65.6019 102.99 65.5718 102.994 65.5421 102.991C65.5123 102.988 65.4834 102.979 65.4572 102.964C65.4309 102.949 65.4078 102.929 65.3893 102.904C65.3708 102.88 65.3572 102.852 65.3494 102.822L65.1622 102.17C65.1462 102.111 65.1533 102.047 65.1819 101.993C65.2105 101.939 65.2584 101.898 65.3154 101.88L69.4013 100.629C69.4589 100.612 69.5205 100.62 69.5729 100.649C69.6253 100.679 69.6646 100.728 69.6823 100.787L71.9126 108.619Z" fill="#15162A"/>
<path opacity="0.4" d="M55.0111 104.884C54.8989 104.885 54.7876 104.863 54.6837 104.821C54.5797 104.778 54.4851 104.716 54.4054 104.637C54.3257 104.557 54.2624 104.463 54.2192 104.359C54.176 104.255 54.1538 104.144 54.1538 104.031C54.1558 103.805 54.2459 103.59 54.4048 103.43C54.5638 103.271 54.7788 103.18 55.0036 103.178C55.2246 103.182 55.4356 103.271 55.5925 103.427C55.7494 103.583 55.8403 103.794 55.8461 104.016C55.8481 104.241 55.7617 104.459 55.6055 104.621C55.4494 104.783 55.2359 104.878 55.0111 104.884Z" fill="#15162A"/>
<path opacity="0.4" d="M41.5675 109.834C41.5492 109.891 41.5101 109.94 41.4581 109.969C41.4061 109.999 41.3449 110.007 41.2868 109.993L38.5772 109.108C37.487 108.769 36.5745 108.007 36.0401 106.989C35.5058 105.971 35.3933 104.78 35.7272 103.678C36.0702 102.575 36.8325 101.654 37.8468 101.118C38.8612 100.582 40.0446 100.474 41.1377 100.818L43.8475 101.659C43.9043 101.679 43.951 101.721 43.9773 101.776C44.0036 101.831 44.0073 101.894 43.9877 101.951L41.5675 109.834ZM40.9185 102.013C40.5263 101.878 40.1107 101.826 39.6976 101.861C39.2846 101.895 38.8831 102.016 38.5183 102.215C38.1536 102.413 37.8334 102.686 37.5779 103.016C37.3225 103.345 37.1372 103.725 37.0338 104.13C36.8947 104.522 36.8373 104.939 36.8652 105.354C36.8931 105.769 37.0057 106.174 37.1959 106.543C37.3861 106.913 37.6499 107.238 37.9706 107.5C38.2913 107.761 38.6619 107.953 39.0594 108.063L40.6467 108.559L42.5058 102.509L40.9185 102.013Z" fill="#15162A"/>
<path opacity="0.4" d="M24.8445 103.364C24.3691 103.073 23.9566 102.69 23.6313 102.236C23.3059 101.782 23.0744 101.266 22.9505 100.72C22.8266 100.175 22.813 99.6092 22.9102 99.0578C23.0074 98.5065 23.2136 97.9804 23.5165 97.5109C23.8054 97.0327 24.1866 96.6179 24.6377 96.291C25.0887 95.9641 25.6004 95.7317 26.1422 95.6078C26.6841 95.4838 27.2451 95.4707 27.7921 95.5692C28.3391 95.6678 28.8609 95.876 29.3265 96.1815C29.7957 96.4712 30.2029 96.8519 30.5246 97.3016C30.8463 97.7513 31.076 98.261 31.2004 98.801C31.3247 99.3409 31.3412 99.9004 31.2489 100.447C31.1566 100.993 30.9574 101.516 30.6628 101.984C30.378 102.467 29.9994 102.888 29.5496 103.221C29.0998 103.553 28.588 103.791 28.0448 103.92C27.5017 104.049 26.9382 104.066 26.3884 103.97C25.8385 103.875 25.3134 103.668 24.8445 103.364ZM28.6874 97.1764C28.0051 96.7611 27.1884 96.6318 26.4125 96.8163C25.6366 97.0008 24.9634 97.4843 24.5374 98.1631C24.1118 98.8527 23.9716 99.6829 24.147 100.476C24.3223 101.268 24.7992 101.96 25.4753 102.402C26.1685 102.814 26.9938 102.938 27.7763 102.748C28.5588 102.558 29.2369 102.068 29.6668 101.382C30.0869 100.693 30.2197 99.8638 30.0362 99.0762C29.8528 98.2886 29.368 97.6058 28.6874 97.1764Z" fill="#15162A"/>
<path opacity="0.4" d="M16.7789 96.2525C16.7616 96.2841 16.7362 96.3104 16.7053 96.3287C16.6744 96.347 16.6392 96.3566 16.6034 96.3566C16.5675 96.3566 16.5324 96.347 16.5015 96.3287C16.4706 96.3104 16.4452 96.2841 16.4278 96.2525L15.8927 95.6724C15.8665 95.6325 15.8525 95.5857 15.8525 95.5379C15.8525 95.49 15.8665 95.4432 15.8927 95.4033L18.9026 90.7033V90.6612L13.5266 92.9986C13.486 93.0121 13.4425 93.0137 13.4011 93.0033C13.3596 92.9929 13.322 92.9709 13.2925 92.9398L13.1503 92.78C13.1269 92.7453 13.1145 92.7043 13.1145 92.6623C13.1145 92.6204 13.1269 92.5794 13.1503 92.5446L15.9346 87.3569L11.0183 89.9633C10.9761 89.9844 10.9284 89.9917 10.882 89.9841C10.8355 89.9766 10.7925 89.9546 10.7591 89.9213L10.224 89.3327C10.197 89.3095 10.1767 89.2795 10.165 89.2458C10.1533 89.2121 10.1507 89.1758 10.1575 89.1408C10.1643 89.1057 10.1802 89.0731 10.2037 89.0463C10.2271 89.0194 10.2572 88.9993 10.2909 88.988L17.6067 85.2969C17.6486 85.2745 17.6965 85.2666 17.7433 85.2742C17.7901 85.2817 17.8331 85.3045 17.8659 85.3389L17.9913 85.4819C18.0127 85.5174 18.024 85.5581 18.024 85.5996C18.024 85.6411 18.0127 85.6818 17.9913 85.7173L15.0817 91.1993L20.7504 88.7526C20.7918 88.7411 20.8355 88.7414 20.8768 88.7532C20.9181 88.7651 20.9554 88.7881 20.9845 88.8199L21.1099 88.9544C21.1384 88.9934 21.1538 89.0405 21.1538 89.0889C21.1538 89.1373 21.1384 89.1845 21.1099 89.2235L16.7789 96.2525Z" fill="#15162A"/>
<path opacity="0.4" d="M6.43972 84.3948C6.41402 84.4082 6.38612 84.4161 6.35749 84.4181C6.32885 84.4201 6.30006 84.4161 6.27292 84.4063C6.24577 84.3965 6.22079 84.3812 6.19934 84.3612C6.17788 84.3412 6.1604 84.317 6.14794 84.2898V84.2024C6.11183 84.1405 6.09279 84.0694 6.09279 83.9969C6.09279 83.9243 6.11183 83.8532 6.14794 83.7913L8.95749 76.4707L4.04702 79.0946C3.9949 79.1227 3.93443 79.1284 3.87839 79.1104C3.82234 79.0924 3.77515 79.0522 3.7469 78.9984L3.40506 78.2986C3.38101 78.2426 3.37798 78.1791 3.39651 78.1207C3.41505 78.0624 3.45389 78.0135 3.5052 77.9838L10.4915 74.2054C10.5447 74.1813 10.6048 74.1796 10.6592 74.2008C10.7135 74.222 10.758 74.2644 10.7833 74.3191V74.4153C10.8199 74.4738 10.8394 74.5422 10.8394 74.6121C10.8394 74.682 10.8199 74.7504 10.7833 74.8089L7.82368 82.2257L12.8843 79.4969C12.9364 79.4688 12.9968 79.4631 13.0529 79.4811C13.1089 79.499 13.1561 79.5392 13.1844 79.5931L13.5178 80.2841C13.5418 80.3401 13.545 80.4037 13.5264 80.462C13.5079 80.5203 13.469 80.5692 13.4177 80.5989L6.43972 84.3948Z" fill="#15162A"/>
<path opacity="0.4" d="M5.93335 63.2508C5.89858 63.025 5.953 62.7944 6.08481 62.6088C6.21662 62.4231 6.41532 62.2973 6.6381 62.2582C6.85975 62.2234 7.08604 62.2787 7.26734 62.4123C7.44864 62.5458 7.57016 62.7465 7.60521 62.9705C7.63975 63.1925 7.58574 63.4193 7.45503 63.6011C7.32433 63.7829 7.12756 63.9049 6.90797 63.9403C6.79916 63.9599 6.68764 63.9576 6.57971 63.9335C6.47178 63.9095 6.36954 63.8641 6.279 63.8001C6.18845 63.736 6.11136 63.6545 6.05205 63.5603C5.99273 63.466 5.95236 63.3608 5.93335 63.2508Z" fill="#15162A"/>
</svg>
